<svg id="Layer_1" data-name="Layer 1" xmlns="http://www.w3.org/2000/svg" viewBox="0 0 500 500"><defs><style>.cls-1{fill:#fff;}</style></defs><path class="cls-1" d="M126.88,377.28c-17.61,0-33.94.12-50.26-.06-9.2-.1-18.43-.23-27.57-1.17-26.73-2.76-44.44-21.53-44.53-48.61q-.46-138.28,0-276.55C4.68,20.78,23.9,2.8,54.16,2.79q196-.09,392,0c30.12,0,48.57,18.34,48.62,48.74.17,90.17-.27,180.36.25,270.53.19,33-19.53,56.05-55.68,55.45-53.69-.9-107.44.91-161.09-.81-20.8-.67-32.79,9.2-44.38,23-3.56,4.23-6.79,8.75-10.54,12.79-22.24,23.94-44.26,48.08-67.18,71.34-4,4.11-13.3,7.51-17.76,5.62-5.14-2.18-10.16-10.34-10.79-16.36-1.57-15.07-.66-30.4-.69-45.63C126.86,411.11,126.88,394.78,126.88,377.28ZM159,427.09l3.33,1.42c21.11-22.67,42.57-45,63.19-68.15,9.75-10.93,19.51-18.69,35.48-18.51,60.09.65,120.18.27,180.28.24,17.37,0,22.3-4.6,22.32-21.93q.18-130.4,0-260.8c0-20.74-5-25.38-25.81-25.4q-69.11-.08-138.21,0c-46,.11-92.08.57-138.12.6C127.8,34.6,94.16,34,60.52,34c-17.76,0-23.51,5.92-24.41,23.46-.12,2.4,0,4.81,0,7.21q0,124.4,0,248.78a97,97,0,0,0,.33,10.8c1.66,14.44,5.33,17.75,20.08,17.81,28.05.1,56.09,0,84.13.08,5.79,0,11.58.73,18.36,1.19Z"/><path class="cls-1" d="M249.3,180.67q-73.89,0-147.77,0c-14.61,0-19.94-4.32-20.16-16-.22-12,5.92-17.5,20.43-17.51q147.16-.12,294.34,0c15,0,21,4.4,21.69,14.86.88,13-4.1,18.6-17.16,18.63Q325,180.78,249.3,180.67Z"/><path class="cls-1" d="M249.5,115.54q-72.08,0-144.15-.06c-4.74,0-10.93.73-13.88-1.83-4.53-3.93-9.4-10.49-9.27-15.81C82.31,93.35,88.7,88,93.51,85c3.24-2.06,8.55-1.08,12.94-1.09q143-.06,285.89,0c4.78,0,9.7,0,14.31,1.07,7.4,1.71,13.07,6.7,10.79,14.5-1.65,5.64-6.22,11.16-10.94,14.88-2.84,2.24-8.48,1.15-12.86,1.16Q321.56,115.59,249.5,115.54Z"/><path class="cls-1" d="M172.53,247.38c-23.64,0-47.29-.14-70.93.05-10.62.09-17.81-4.14-19.9-14.82-1.66-8.46,1.17-15.23,10-17.93a45.23,45.23,0,0,1,13-1.92q68.54-.21,137.06,0a70.08,70.08,0,0,1,11.84,1.48c8.6,1.5,12.61,7.43,11.85,15.42-.72,7.51-2.84,15.72-12.43,16.58-10.73,1-21.55,1-32.34,1.12C204.59,247.51,188.56,247.38,172.53,247.38Z"/></svg>