<svg id="Layer_1" data-name="Layer 1" xmlns="http://www.w3.org/2000/svg" viewBox="0 0 500 500"><defs><style>.cls-1{fill:#fff;}</style></defs><path class="cls-1" d="M275.32,139.13c-20.79,39.87-40.91,78.81-61.51,117.48-2.22,4.16-6.95,7.26-11,10.08-14.24,9.76-16.64,25.26-6,40.71,10,14.5,28.93,18.87,41.8,9.5q50.92-37.09,101.78-74.26c3.18-2.32,6.65-4.22,10.84-6.86,9.15,25.88,13.8,51.83,13.19,78.26-.75,32.69-6.53,64.69-28.53,90.54a106.34,106.34,0,0,1-30.38,24.05c-22.19,11.86-47-4.48-47-29.73,0-8,.26-16,.17-24-.12-10.89-4.69-18.94-15.52-22.34-8.32-2.61-19.32,2.4-25.22,11.14-1,1.5-2.33,3-2.66,4.71-6.05,30.86-34.39,36.49-63.46,29.35C126.68,391.62,107.4,376,93.38,355,63,309.5,55,260,72.56,207.68c19.71-58.93,81.28-96.13,143.13-87.89C236.39,122.55,256.07,127.68,275.32,139.13ZM172.86,173.49a21.76,21.76,0,0,0,21.95,21.94c12-.07,22.27-10.1,22.39-21.84.12-12.06-10.63-22.67-22.85-22.53S172.77,161.05,172.86,173.49ZM120.32,295.38c11.89-.18,22.08-10.58,21.86-22.34s-10.62-21.8-22.68-21.61S97.39,262.08,97.73,273.9A22,22,0,0,0,120.32,295.38Zm-8.18-92.8c0,12.42,9.8,22.3,21.88,22.18a22.25,22.25,0,0,0,0-44.49C122.09,180.23,112.1,190.44,112.14,202.58Zm68.41,134.24c0-12.49-9.43-22.08-21.79-22-12.06,0-22.43,10.18-22.43,22,0,12,10,21.77,22.35,21.88C171.27,358.73,180.5,349.53,180.55,336.82ZM331,340.44c.34-11.81-9.8-23-21.25-23.36-11.23-.4-22.44,10.36-22.92,22s9.65,22.47,21.55,23.08C320.06,362.72,330.61,352.61,331,340.44Z"/><path class="cls-1" d="M213.53,312.81c-14.59-5.46-18-11.56-11.87-23.31Q252.15,192.15,303.3,95.13c.63-1.2,1.75-2.14,3.17-3.82l19.38,10.2Z"/><path class="cls-1" d="M344.3,192.33l22,30-144,93.22-2.54-2.73c7.28-16.57,14.53-33.72,28.89-45.45C279.7,241.91,311.8,217.68,344.3,192.33Z"/><path class="cls-1" d="M252,255.82c19.65-44.47,42-86.91,74.9-124.35l27.3,21.6C322,190.19,295.76,231.48,252,255.82Z"/><path class="cls-1" d="M428.48,136.14c5.64,7.61,10.94,14.74,16.69,22.47l-73.66,58.32a12.81,12.81,0,0,1-2.57-1.69c-24.39-30.87-20.05-25.31,5.51-43.12C391.93,159.94,409.91,148.47,428.48,136.14Z"/><path class="cls-1" d="M358.12,148.52,329.41,126.6l48.46-50.5c4.51-4.69,8.52-10.1,13.75-13.77,2.79-2,8.84-2.52,11.3-.76,2.28,1.62,3.64,8.33,2.14,10.86C389.93,97.81,374.12,122.8,358.12,148.52Z"/><path class="cls-1" d="M449.57,155.54c-5.73-7.86-10.84-14.86-16.45-22.57l39.34-37.15L496,128.28Z"/><path class="cls-1" d="M444.81,5.23c-1.38,12.48-1.67,24.07-4.15,35.16C437.83,53,426.38,62.21,416.32,61.71c-9.42-.47-15.67-5.64-17.78-14.74-2.66-11.47,4.59-24.79,16.28-30.24,7.85-3.67,16-6.68,24.06-9.93C440.15,6.29,441.55,6.08,444.81,5.23Z"/><path class="cls-1" d="M113.43,382.26l12.65,10.43c-41.46,27.18-80.39,56.15-122,81q-1.4-2-2.81-3.94Z"/><path class="cls-1" d="M133.34,465.27l-15.71-7.89c9-17.51,17-35.2,27.35-51.33,2.23-3.46,13.28-1.24,22.9-1.78Z"/><path class="cls-1" d="M141.52,401.75,65.3,491.37l-3.47-2.51c1.54-3,2.73-6.17,4.67-8.85,18.74-25.78,37.89-51.27,56.25-77.32C128.23,394.92,132.84,393.25,141.52,401.75Z"/><path class="cls-1" d="M327.28,96c-3.47-1.47-6.51-2.54-9.35-4-3.11-1.6-6-3.56-10-6l25-30.25,3.28,1.5C338.25,70.93,333.29,83.22,327.28,96Z"/></svg>