<svg id="Layer_1" data-name="Layer 1" xmlns="http://www.w3.org/2000/svg" viewBox="0 0 135.4 132.05"><defs><style>.cls-1{fill:#fff;}</style></defs><path class="cls-1" d="M282.34,293.27q-.84-6.43-2-15.22l8.41,7.74.77-.6c-.14-.58-.09-1.32-.44-1.72a112,112,0,0,0-7.6-8.25,9.11,9.11,0,0,1-3-8.09c3,3,5.71,5.82,8.56,8.49.62.58,1.73.65,2.61.95a8.55,8.55,0,0,0-1-2.4c-2.76-3.08-5.54-6.16-8.48-9.07a5.6,5.6,0,0,1-1.54-6.46L289.08,269l1-.74a17.51,17.51,0,0,0-1.79-3.1c-2.48-2.8-5-5.62-7.69-8.19-2.34-2.22-1.75-4.29-.24-6.78L287,256.4l.75-.4a5.22,5.22,0,0,0-.28-2,11.52,11.52,0,0,0-1.83-1.94c-5.19-5.34-5.93-4.32-.29-11.41a35.48,35.48,0,0,1,6.63-6.2c2.89-2.15,3.33-1.89,5,1.41.4.78.59,1.67,1,2.47s.82,1.5,1.39,2.52c1.31-2.09,2.36-4,3.66-5.7a10.77,10.77,0,0,1,2.66-1.85,10.55,10.55,0,0,1,1,2.9c.13,3.16-.09,6.35.1,9.51a8,8,0,0,0,1.32,4.07c2.5,3.41,5.14,6.75,7.94,9.93,3,3.36,2.22,5.52.21,8.83-1.28,2.09-3.65,1.79-7.2.17-3.33-1.52-6.87-2.59-10.49-3.91-.07,3.6,1.9,6.39,4.75,8.33,8.91,6.06,9.89,14.74,8.78,24.27-6.72,1.22-28.47.53-29.65-1v2.62c8.21,0,16.28-.08,24.35,0,4.16.06,5.62,1.75,6,5.76a4.63,4.63,0,0,0,1.68,3c1.86,1.3,2.8,2.79,2.14,5s-2.49,2.9-4.65,2.9c-11.29,0-22.59,0-33.89,0-8.32,0-16.64-.16-25-.18q-33.75-.09-67.49-.13c-1,0-1.93-.08-3-.13V305.7l.59.27c.59-1.1,1.13-2.24,1.78-3.31,1.1-1.79,2.21-3.58,3.43-5.29,1-1.39,2.13-2.68,3.21-4l-.5-.84H199c5.25,0,10.5,0,15.76,0,.85,0,2.14.33,2.46.93a14.48,14.48,0,0,0,6.58,6.73,12.5,12.5,0,0,0,.24-2.24c-.47-5.59,2.35-8.89,7.09-11.41,1.34-.72,1.66-3.35,2.71-5.68a12.81,12.81,0,0,1,2.12-.25c11.49,0,23,0,34.47-.08,2,0,3,.71,2.88,2.66-.16,2.21.94,2.94,2.78,4C278.64,288.77,280.48,291.4,282.34,293.27Z" transform="translate(-182.6 -183.76)"/><path class="cls-1" d="M236.11,245.61c-8-.51-10.74-2.46-11-7.42-.15-3.26,1-6.11,4.08-7.22,2.63-.93,5.58-.93,8.63-1.37-.76-3.55-1.61-7.19-2.31-10.86-1.14-6,.72-8.26,6.84-8.35h1.91v-3.92c-5.6-2.29-7.5-6.21-5.43-12.15a6.39,6.39,0,0,1,3.61-3.36c1.63-.54,2.27-1.21,2.4-2.78.22-2.75,2-4,4.52-4.27a45.84,45.84,0,0,1,7.41,0c3.85.28,4.53,3.25,4.86,6.29,5,1.43,5.8,2.26,5.84,6.11.09,8.2.08,8.22-5.83,10v4c1.28,0,2.44,0,3.6,0,4.18.12,6.33,2.71,5.58,6.85-.55,3-1.29,6-1.88,9-.22,1.13-.28,2.3-.44,3.69,3.86.33,8-.8,10.66,2.72A10,10,0,0,1,281,237.8c.25,4.74-2.13,6.41-10.94,8.08.49,6.21,1,12.46,1.51,18.94h-37C235.11,258.46,235.6,252.13,236.11,245.61Zm16.82-4.74h19.9c2.14,0,3.7-.65,3.66-3.2,0-2.36-1.47-3-3.5-3-13.26,0-26.53-.06-39.8.09a4.51,4.51,0,0,0-3.32,2.15c-1.05,2.21.53,4,3.46,4C239.86,240.91,246.4,240.86,252.93,240.87Zm-4.15-46.12-5.52.5v6.31h5.93V210H257v-8.32l5.64-.33v-6.1l-5.53-.53c-.16-1.93-.3-3.67-.43-5.37C250,188.06,249.45,188.4,248.78,194.75Z" transform="translate(-182.6 -183.76)"/><path class="cls-1" d="M192.17,257.51c-1.33-3.33-2.65-6.66-4.26-10.69,2.86.88,5.24,2.43,7.09,2s3.41-2.94,5.35-4.8c.71,1.11,1.37,2.05,1.93,3s1,2.07,1.82,3.64c.71-1.44,1.17-2.45,1.71-3.41s1.24-2,2.05-3.3c1.06,1,2.3,1.67,2.83,2.72,1.71,3.41,3.9,2.39,6.31,1.07a19.56,19.56,0,0,1,3.23-.94c-1.52,4-2.82,7.36-4.12,10.77,5.36,1.58,6.29,2.51,6.18,6-.09,3-1.88,4.42-6.87,5.37.3,4.35.61,8.73.93,13.36H191.94q.42-6.64.84-13.19c-5.13-1.45-6.81-3-6.9-6.2C185.8,260.17,186.24,259.79,192.17,257.51Zm12.05,3.59c-4.15,0-8.3-.11-12.44.08-1,.05-1.9,1.13-2.84,1.74.95.67,1.89,1.9,2.86,1.92q12.28.24,24.57,0c1,0,2-1.3,3-2-1-.59-2-1.62-3-1.67C212.32,261,208.27,261.1,204.22,261.1Z" transform="translate(-182.6 -183.76)"/><path class="cls-1" d="M233.55,275.64c.18-2,.34-3.73.53-5.83H272c.21,2,.4,3.85.61,5.83Z" transform="translate(-182.6 -183.76)"/><path class="cls-1" d="M211,236.48c0,4.25-2.85,7.18-6.93,7.15s-6.82-2.95-6.87-7.26a6.69,6.69,0,0,1,7.13-7C208.31,229.48,211,232.33,211,236.48Z" transform="translate(-182.6 -183.76)"/><path class="cls-1" d="M191.59,289.65v-4.49h21.67c3.8,0,3.8,0,3.4,4.49Z" transform="translate(-182.6 -183.76)"/></svg>