<svg id="Layer_1" data-name="Layer 1" xmlns="http://www.w3.org/2000/svg" viewBox="0 0 500 500"><defs><style>.cls-1{fill:#fff;}</style></defs><path class="cls-1" d="M396.61,18.7V47c0,18,.17,36-.18,54-.05,2.76-1.79,6.89-4,8-26.92,13.55-55.54,20.4-85.58,16.42-14.37-1.9-28.13-8-42.4-11.12-10-2.17-20.46-2.69-30.74-3.48-11.28-.87-22.74-.31-33.87-2-12.26-1.86-17.55-9.56-16.89-21.27.74-13.37,6.5-21.09,19-21.72,23.29-1.19,46.65-1.11,70-1.54,3.38-.06,6.77,0,10.62,0V52.45c-3.57-.24-6.95-.67-10.33-.67q-34.1.09-68.19.34c-11.45.07-20,4.89-27.68,13.7-6.85,7.84-15.59,14.39-24.43,20.06C128.67,100.76,105,115,81.32,129.2c-13.33,8-22.47,6.52-29.48-4.19-8.07-12.32-6-26,5.55-34.09,14.39-10,29-19.81,43.51-29.64,14.8-10,29.85-19.65,44.41-30,13.23-9.41,27.11-13.23,43.77-13,64.72,1,129.46.39,194.2.39Z"/><path class="cls-1" d="M103.18,479.69V390.91c24.56-8,48.61-18.25,75.08-16,14.69,1.25,29.87,2.06,43.7,6.54,17.23,5.58,34.36,7.29,52.1,7.07,8.17-.09,16.49-.21,24.48,1.16,12.59,2.15,18.9,11.26,17.87,23.69-1,11.92-10.9,22.22-22.34,22.35-23.06.25-46.13.41-69.17-.06-9.28-.19-12.07,3.1-9.33,12.28,2.3.22,4.74.64,7.17.65,20.85.05,41.7.27,62.54-.05,16.22-.24,31.29-2.91,40.31-19.31,2.17-4,7.84-6.11,12.1-8.76,29-18.09,57.88-36.36,87.29-53.74,3.57-2.11,11.86-1.14,14.81,1.69a44.83,44.83,0,0,1,11.8,19.34c2.55,9.09-1.4,16.74-10.06,22.31-24,15.47-47.68,31.52-71.4,47.47-3.31,2.23-6,5.33-9.22,7.75-14,10.59-29.11,15.6-47.32,15.35-66.32-.91-132.66-.35-199-.38C110.91,480.24,107.22,479.9,103.18,479.69Z"/><path class="cls-1" d="M249.18,156.75c49.95-2.46,88.66,44.76,88.89,93.23.25,51.29-43.14,94.3-88.66,94.46-45.32.17-88.46-43.23-88.1-94.7C161.64,201.16,199.9,154.33,249.18,156.75ZM213.67,258.59c3.58,6.64,5.43,12.39,9.12,16.47,9.08,10,19.68,18.72,28.4,29,8.55,10.09,9.39,10.72,18.2-.33L238.53,272c7.73-6.38,16.36-10.3,19.52-16.86,5-10.38,11.74-13.34,21.95-12.35.47,0,1-.65,1.7-1.14V229.2c-19.43-2.19-19.43-2.19-21.3-15.29h22.07l2.37-2.81c-2.38-3.69-4.63-10.47-7.17-10.58-20.09-.88-40.23-.49-60.48-.49v14.38c23.58-.48,30.12,2.3,32.29,14.44H217.54v15.21H251C243.65,260.49,229.45,256.38,213.67,258.59Z"/><path class="cls-1" d="M87.86,359.51c.53,6,1.36,11.3,1.38,16.57q.17,52.05,0,104.1c0,14.25-1.49,15.61-15.58,15.62-5.37,0-10.76-.35-16.09.08-7.88.63-11.06-3.74-11.09-10.52-.17-39.11-.11-78.23-.05-117.34,0-4.9,1.48-8.64,7.56-8.56C65,359.62,76,359.51,87.86,359.51Z"/><path class="cls-1" d="M410.06,72.37c0-19,.12-37.9-.07-56.85-.07-7.42,2.46-11.22,10.52-10.7a135.77,135.77,0,0,0,21.72-.05c8.38-.8,10.6,3.6,10.71,10.57.09,6,.05,12,.05,18q0,45.48,0,91c0,14.85-.26,15.19-15.18,15.63-6.3.18-12.62-.51-18.92-.37-6.71.15-8.85-3.3-8.82-9.39.09-19.27,0-38.53,0-57.8Z"/></svg>