<svg id="Layer_1" data-name="Layer 1" xmlns="http://www.w3.org/2000/svg" viewBox="0 0 500 500"><defs><style>.cls-1{fill:#fff;}</style></defs><path class="cls-1" d="M479.42,250.83c-2,59.7-19.6,114.09-59.11,161.64-70.87,85.3-184.48,102.79-271.53,56.58C75,429.86,33.44,365.53,22.55,282.12c-7.81-59.85,4.76-115.69,35.81-166.78a222,222,0,0,1,61.4-66c70.17-49.89,145.86-57.71,222.56-22,73.47,34.23,116.68,95.45,132,175.48,2.08,10.87,3.1,21.95,4.37,33C479.24,240.46,479.17,245.19,479.42,250.83Zm-37.17-3.06c-1.08-10-1.75-22.44-3.85-34.61-11-63.89-44.73-113.48-100.8-144.73C272.4,32.1,182.79,36.41,117.41,102c-4.53,4.55-9.42,8.85-13.26,13.94C65.5,167.23,50,224.45,61.11,288.14c10.31,58.93,41.12,105.49,90.56,138,61.39,40.32,154.93,35.11,211-11.24C415.11,371.42,439.7,316.73,442.25,247.77Z"/><path class="cls-1" d="M405.13,198.64c-3.52,5.3-5.12,8.77-7.65,11.35-20,20.4-39.9,40.83-60.31,60.77-6.4,6.25-9.11,12.27-7.49,21.47,5.4,30.64,10,61.42,14.8,92.16.44,2.8.33,5.68.6,11-20.62-11.83-40.65-21.26-58.32-34-25.38-18.24-48.33-18.81-73.86-.21-17.62,12.82-37.73,22.21-59.7,34.85,3.35-21.45,6.18-39.7,9-57.94,2.38-15.15,4.2-30.42,7.4-45.4,2.08-9.76-1.38-16-8-22.52-20.39-19.95-40.32-40.37-60.27-60.77-2.51-2.56-4-6.08-7-10.57,30.29-4.41,58.87-9.52,87.68-12.39,15.45-1.53,22.85-8.43,28.55-22.35,11.25-27.47,24.63-54.07,38.23-83.39,3.37,5.76,5.7,9.07,7.36,12.68,11.4,24.72,23.13,49.31,33.77,74.36,5.19,12.23,13.45,17.06,26.22,18.53C345,189.63,373.57,194.18,405.13,198.64Z"/></svg>