<svg id="Layer_1" data-name="Layer 1" xmlns="http://www.w3.org/2000/svg" viewBox="0 0 500 500"><defs><style>.cls-1{fill:#fff;}</style></defs><path class="cls-1" d="M389,266.89Q355,233.77,321,200.62c-8.24-8.05-17-14.84-24.51-24.76-16.23-21.37-33.54-23.36-52.37-16.57-12,4.31-20.11,14-24.72,35.53-5.38,25.13-14.24,34.37-28,32.17-8.95-1.44-12.46-9.91-10.42-25.94,2.67-21,4.89-42.3,8.63-62.64a65.15,65.15,0,0,1,10.17-24.53c7.13-10.11,15.3-17.68,23-26.41,18.26-20.68,37.43-29.56,59.18-23.3,25.87,7.44,52,11.22,78.13,16.06,5.23,1,7.51,5.37,8.92,14.32,7.61,48.11,15.68,96,23.1,144.19,1.26,8.22.18,17.69.18,26.59Z"/><path class="cls-1" d="M493,243.07c-17.33,8.67-34.37,17.23-51.43,25.73-6.45,3.21-12.91,6.4-19.39,9.41-12.42,5.77-15.47,2.73-19.18-19.82q-12.57-76.54-25-153.2c-6.36-39.33-6.28-39.5,15.42-50.09,19.1-9.33,38.23-18.41,57.29-28,4.74-2.39,7.45-1.37,9,8.42q16,100,32.3,199.71C492.38,237.18,492.55,239.22,493,243.07Z"/><path class="cls-1" d="M6.27,240.62C17.49,171.73,28.55,103.13,40.05,34.77c.64-3.82,5.26-8.78,7.3-7.84C70.73,37.79,94,49.72,117.25,61.28c6.62,3.29,9,10.55,7,23-9.67,59.3-19.1,118.73-29,177.91-2.13,12.77-7.9,19.58-15.13,16.26-24-11-47.79-22.88-71.66-34.5C8,243.7,7.57,242.64,6.27,240.62Z"/><path class="cls-1" d="M198.69,427.84c-18.66,11.05-20.1,9.93-31.92-16.94-1.61-3.67-5.32-5.2-8.18-5.79-10.1-2.06-16-9.56-16.87-22.65-.94-14.13,7.26-37,14.79-40.47,7.15-3.26,11.3,4.65,15.17,14.39,1.36,3.41,4.48,7.23,6.4,6.61,18.56-6,18.54-6.3,29.09,22.37,20.15-30.33,29.9-24.14,35.23,23.08.92.32,2,1.08,3.08,1,6.46-.41,12.49.91,14.91,14.38,2.36,13.19-1.48,34-7.51,40.49-6.58,7-12.58,3.78-17.14-6.4-3.33-7.41-6.07-10.83-11.69-7.05C212.13,458.86,205,444.64,198.69,427.84Z"/><path class="cls-1" d="M265.08,323c5.41,4.32,11,8.09,16.21,13.05,13.48,12.78,26.75,26.32,40.25,39a74.4,74.4,0,0,0,13.8,9.77c7.54,4.47,13-1.05,16.91-13.18,4.11-12.8,3.88-25-2.24-35.1a82.82,82.82,0,0,0-12.23-15.45c-19.45-19.57-39-38.65-58.53-58.1-4-4-7.82-8.84-11.71-13.3.31-1.64.61-3.28.92-4.91,3.77,2.1,7.82,3.19,11.26,6.47,21.76,20.7,43.37,42,65.08,62.85,3.86,3.71,7.84,7.38,12,9.64,7.52,4.1,13.73.88,17.66-13.1,3.84-13.63,1.81-24.93-4.57-32.35-11.58-13.46-23.52-25.89-35.53-38-18.94-19.06-38.1-37.36-57.07-56.32-3.37-3.38-6.27-8.4-9.39-12.66l1.25-4.37c3.56,2.45,7.3,4.21,10.64,7.45,29.16,28.28,58.24,56.82,87.34,85.33a52.12,52.12,0,0,1,5.22,5.9c6.87,9.15,10.92,21.4,9.89,37.31-1,15.72-5.78,27.22-14.13,31.91-5.56,3.12-7.72,8.8-7.86,19.68-.35,26.4-5.24,37.06-19.29,41.62-6.21,2-9.56,6.58-11,18.34-2.2,17.41-7.56,28.6-18.47,27.6-2.61-.24-5.44,4.6-8,7.53-.93,1.05-1.43,3.37-2.15,5.07-12.7,30.11-16.95,31.91-38.72,13,3.86-2.35,5.95-5,7.77-4.42,3.09.92,6,3.95,9,5.88,7.23,4.63,11.68-1.77,14.86-13.09,3.31-11.78,1.32-21.78-4.18-28.1-8.89-10.23-18.37-18.69-27.44-28.41-3.21-3.45-5.94-8.42-8.89-12.7q.75-2.36,1.51-4.71c3.05,2.23,6.23,4,9.14,6.76,12.18,11.54,24.28,23.4,36.44,35a38.79,38.79,0,0,0,6.38,5.13c7.16,4.42,12.55.11,16.12-12.06,3.78-12.88,1.82-23.63-4.65-30.41-15.46-16.19-31.23-31.37-46.78-47.28-3-3.05-5.54-7.54-8.3-11.37C264.06,326.31,264.57,324.64,265.08,323Z"/><path class="cls-1" d="M237.61,53.88c-25.21-4.75-47.61,14.94-71,25.33-9.08,4-18.34,6.61-27.52,9.85l-.81-5.31c2.16-1.78,4.25-4,6.5-5.25,21.51-11.58,43-23.1,64.59-34.37C219.53,38.82,229.3,39.06,237.61,53.88Z"/><path class="cls-1" d="M101.76,288.07l37.62,49.54C126.28,342.72,107.44,319.15,101.76,288.07Z"/></svg>