<svg id="Layer_1" data-name="Layer 1" xmlns="http://www.w3.org/2000/svg" viewBox="0 0 500 500"><defs><style>.cls-1{fill:#fff;}</style></defs><path class="cls-1" d="M17.13,250.27c1.15-12.69,1.7-24.53,3.42-36.18,1.79-12,8.64-17.39,20.75-17.61,3.68-.07,7.37.66,11,.53,13.31-.46,21.76-7.61,26.68-19.65,4.68-11.45,3.82-22.15-4.09-31.87a152.11,152.11,0,0,0-10.39-11.31c-8.68-8.69-10.52-18.68-3.27-28.59,9-12.26,18.82-23.92,28.9-35.29A143,143,0,0,1,109.09,53c10.27-8,19-7.19,28.27,1.95a69.88,69.88,0,0,1,6.53,7c7.06,9.25,16.46,12.2,27.37,9.59,12-2.86,19.43-11.24,22.73-22.78,1.37-4.81,1.32-10.27.82-15.33-1.75-17.76,4-26.94,21.48-28.29a587.27,587.27,0,0,1,63.36-1c12.73.39,18.37,8.1,19,21.94.24,4.93-.09,9.88.25,14.79,1.28,18.61,19.6,32.7,37.31,27.52,6-1.76,11.52-7,16-11.83,15-16,21.57-17,38.71-3.53A212.37,212.37,0,0,1,434.42,99.8c7.46,10.82,5.94,21-4.4,30.21-9.58,8.51-14.47,18.58-14.24,31.7.22,12.72,17,30.08,29.47,28.85a126.39,126.39,0,0,1,14-.3c10.5.15,17,5.15,18.63,15.35,4.11,25.13,5.84,50.36,1.79,75.72-2.26,14.08-10.5,20.55-24.64,19.13-17.59-1.75-27.24,3.49-33.75,18.35-6.24,14.24-3,27.4,9.2,38.6a84.18,84.18,0,0,1,9,9.64c5.84,7.31,5.33,15.37.68,22.72a169.18,169.18,0,0,1-17.09,23c-9.52,10.55-19.78,20.45-29.95,30.41-9.76,9.55-21.08,9.22-30.48-.75-3.51-3.73-6.16-8.39-10-11.62-8.74-7.31-18.87-8.09-29.11-3.55-11,4.87-16.87,14-18.44,25.61-.72,5.29.14,10.8.39,16.21.66,14.41-3.1,20.28-17.05,23.19-23.85,5-48,4.74-71.93.91-10.4-1.66-15.44-9.51-15.25-21.14.09-5.17.91-10.43.27-15.5C199,437.17,181,420.67,160.32,430c-4.42,2-7.84,6.33-11.54,9.77-2.34,2.18-4.24,4.82-6.52,7-8.62,8.45-17.26,9.53-27.3,2.6-20.86-14.39-37.63-32.86-51.5-53.94-5.61-8.54-3.77-18.4,3.68-26.28,4-4.25,8.19-8.43,11.57-13.15,9.23-12.91,7.16-29-3.84-40.42-6.69-7-14.32-9.76-23.65-9-2.95.22-5.91.36-8.87.38-12.26.09-19.75-5.85-21.31-17.87C19.33,276,18.35,262.7,17.13,250.27Zm448,2.57h-.53c0-5.91.1-11.82,0-17.73-.14-6.15-.52-12.3-.8-18.44-.53-11.73-.58-11.58-12.56-10.85-16.46,1-31.49-3.29-41-17.33-16.14-23.94-12.74-48.54,8-68.53,6.39-6.17,6.46-8.95.23-15.32-10.47-10.71-21-21.37-31.45-32.09-2.72-2.8-5.46-5.6-7.9-8.63-4.6-5.7-7.92-5.35-12.35.86-10.38,14.53-24.3,22.39-42.47,20-15.82-2.1-30-8.08-35.37-24.71a126,126,0,0,1-5.31-29.4c-.5-6.68-2.44-10.4-9.16-10.45-16.47-.1-33-.89-49.39.37-14.14,1.09-15.93-.88-14.83,17.5a44.83,44.83,0,0,1,0,5.91c-2.26,28.65-22,44.19-46.29,44.77-13.49.32-25.59-7.77-34.48-18.67-4.69-5.76-8.79-5.44-14.35-1.14-15.17,11.7-26.57,26.81-38.6,41.38-.46.56-.73,1.28-1.15,1.89-3.5,5.23-2.18,9,2.47,13.21a65.9,65.9,0,0,1,13.32,16.33c15.4,28.08.62,71.54-43.83,72-11.83.12-12.7.56-12.61,12.4.16,18.22.64,36.44,1,54.66.21,10.47,1.4,11.51,11.67,10.39,11.94-1.31,23,1,33,7.88,22.53,15.57,28.14,56,1.19,78.33-8,6.61-7.76,8.24-.51,15.73,13.82,14.26,27.58,28.57,41.43,42.79,3.47,3.56,6.6,3.56,9.45-1.09,10-16.39,24.64-24.62,43.93-22.47,16.27,1.81,29.27,8.82,36.19,25.07,4.23,10,4.47,20.07,4.22,30.42-.15,6.21,1.89,9.79,8.86,9.7,17.43-.22,34.88.18,52.3-.26,11.67-.29,12.8-2.12,11.94-14a55.22,55.22,0,0,1-.06-7.39c1.87-30.88,22.13-46.92,47.8-47.53,13.17-.31,25,7.53,33.83,18.26,6.94,8.41,8.45,8.33,16,.23,11-11.87,22.16-23.68,33.11-35.64,2.28-2.5,3.79-5.7,6-8.26,3.4-3.9,1.36-6.19-1.52-9.26-5.64-6-11.62-12-15.83-19-10.55-17.45-6.6-44.16,8.57-57.82,9.16-8.25,19.66-14.09,33-13.52,14.85.64,14.87.15,14.87-15Z"/><path class="cls-1" d="M181.49,342.13c-14.8,0-29.6.11-44.4,0-10-.1-12-2.09-12.65-12.06-.28-4.66,0-9.35.12-14,.26-9.14,4.86-15.34,13.23-18.65,6.17-2.44,12.5-4.49,18.75-6.72,9-3.22,10.72-7.49,5.36-15.51-8.4-12.59-11.08-26.09-7.71-40.83,3.33-14.54,17.26-28.3,34.47-25,11,2.11,22,12.47,23.07,23.74,1.36,14.14.35,27.94-6.6,40.9-4.94,9.19-2.44,14.39,7.64,17.81,4.42,1.5,8.92,2.8,13.24,4.56,13.44,5.48,21.23,20.83,18.07,35-1.41,6.32-4.83,10.16-11.57,10.18-17,.05-34,0-51,0Z"/><path class="cls-1" d="M339.5,342.14q-33.62,0-67.23,0c-12.72,0-14.56-1.82-14.93-14.34-.11-3.45.06-6.9,0-10.35-.26-10.54,5.09-17.06,14.62-20.65,5.74-2.16,11.56-4.14,17.23-6.48,7.34-3,8.79-6,5.16-13.14-6.16-12.09-9.57-24.46-8.5-38.26,1-13.19,14.51-31.72,32.17-29.73,11.44,1.28,24.23,12,26.88,24.59a55.58,55.58,0,0,1-4.8,37.28c-1.1,2.19-2.11,4.43-3.07,6.69-2.48,5.83-.95,9.9,5.15,12.25,7.11,2.74,14.22,5.51,21.13,8.68,12.58,5.78,17.55,28.44,8.22,38.8-2.13,2.36-6.42,3.56-9.84,3.82-7.34.57-14.77.18-22.16.18Z"/><path class="cls-1" d="M286.39,280.39c-12.16,7.31-22.7,13.79-33.43,19.95a7.17,7.17,0,0,1-6,.16c-10.93-6.26-21.66-12.86-33.61-20.05l19.58-10.2c-2.44-6.26-4.89-12.33-7.17-18.45-4.92-13.18-6.41-26.22,1.41-39,5.08-8.29,12.63-12.41,22-12.43,9.57,0,17.43,3.56,22.6,12.48,8.22,14.17,6.93,28.17.53,42.38-.41.89-1,1.72-1.38,2.61-5.38,11.27-4.3,14.12,7.16,19C280.1,277.68,282.13,278.56,286.39,280.39Z"/><path class="cls-1" d="M316.36,195.59c-13.78,0-13.78,0-19.51-16.55-4.61-13.33-4.61-13.33,6.57-21.49,14-10.23,18.43-9.57,30.75,3.5,4.27,4.53,6.22,8.82,2.91,14.65a34.09,34.09,0,0,0-2.25,6.22C330.35,195.59,330.35,195.59,316.36,195.59Z"/></svg>