<svg id="Layer_1" data-name="Layer 1" xmlns="http://www.w3.org/2000/svg" viewBox="0 0 500 500"><defs><style>.cls-1{fill:#fff;}</style></defs><path class="cls-1" d="M444.24,158.41c-2.93-5.84-6-11.63-8.78-17.54s-5.22-11.79-8.56-19.4c-9.08,13.29-20.63,16.47-34.31,14.11-14.33-2.46-26.15-9.09-33.7-21.54C351,101,349.56,86.47,352.83,71.57c.66-3,1.72-6,3.37-11.55-16.54-4-32.53-9.32-48.95-11.63-48.44-6.8-95.33.85-138.45,23.33-55.52,28.94-95.33,72.7-117,132.56-22,60.8-20.86,121.18-.6,181.85,3,9.17,6.37,18.24,9.41,27.41a30.48,30.48,0,0,1,1.54,9.89,172.57,172.57,0,0,1-33.57-65.56c-14-52.11-14.24-104.45-.19-156.62A233,233,0,0,1,40.74,166c13.91-30.86,31.13-59.51,55-84.17C130,46.39,170.87,24.65,219,14c35.27-7.83,70.44-11.28,105.5-3.36,19.1,4.32,38.52,11.55,55.1,21.82,39.38,24.39,61.47,60.92,66,107.46.59,6,.9,12.07,1.33,18.11Zm-66.52-87c-8.56,15.65-5.12,31.18,5.72,39.15,9.35,6.89,21.25,6.28,32-1.72-1.26-6.19-3.78-8.53-11-6.78-13.06,3.14-19.18-1.36-21.52-13.81-.51-2.74,0-5.72-.84-8.32C381.12,76.91,379.21,74.22,377.72,71.39Z"/><path class="cls-1" d="M441.93,207.46c15.95,2.29,24.48,12.16,28.9,24.29,16.36,44.86,14.14,88.33-13.39,128.76-7.19,10.57-17.29,17.88-31.21,22.64,2.77-10.51,5.22-19.92,7.74-29.32,5.47-20.35.94-37.35-13.44-53.51-31.94-35.9-71.28-53.52-119-55.25-29.55-1.07-58.78-1-87.64,5.9-48.78,11.64-76.3,46.29-80.47,95.48-.36,4.31-1,8.61-1.43,12.91l-2.35.44c-2.12-8-5.11-15.91-6.21-24.06-4.94-36.71,2.56-63,36.69-85.18,29.94-19.42,62.85-29.14,98.7-30.1a330.8,330.8,0,0,1,86.4,8.92c12.59,3,24.87,7.28,37.21,11.25a15.14,15.14,0,0,1,6.05,4.19c9.4,10.14,19.1,20.06,27.8,30.78,11.35,14,22.46,28.25,32.4,43.24,3.25,4.89,2.54,12.41,3.6,18.5C472.05,313.77,467.32,247.11,441.93,207.46Z"/><path class="cls-1" d="M162.06,218.15c8.83-15.6,18.8-27.45,32.8-35.57,21.85-12.65,45-21.18,70.28-13.84,16,4.63,31.08,12.31,46.58,18.62,11.44,4.65,19.68,2.79,27.12-6.9-1.92.55-2.92.73-3.83,1.11-9.79,4.1-17.56,2.62-22.68-4.37-5.27-7.19-4.27-16.08,1.88-24.22,1.78-2.37,1.75-6.1,2.56-9.21-3.3,1.14-8.4,1.34-9.56,3.58-3.9,7.54-6.39,15.8-10.42,26.41-4-8.17-8.73-14.78-10.55-22.11-2.13-8.51-5.5-14.17-14-17.47-4.87-1.88-8.66-6.52-13.63-10.46,2.21-1,2.9-1.53,3.14-1.37,15.32,9.85,31.24,5.43,47.16,2.15,17.72-3.65,28.9,1.48,39.33,16.05s21.65,29,33.05,43c3.44,4.23,8.72,7,12.41,12-6.72-3.28-13.6-6.27-20.09-9.94-4.77-2.69-8.47-2.48-12.71,1.06-6.17,5.16-12.15,12.06-19.37,14.07-9.43,2.62-20.23,2.7-30,1.15-13.58-2.16-26.57-8.35-40.16-10.13-22.16-2.91-44.57-1.55-65.76,6.27-12.72,4.69-24.62,11.58-36.9,17.45C167.11,216.21,165.46,216.78,162.06,218.15Z"/><path class="cls-1" d="M350.13,295.19c-26.67-1.6-52-5-76.76-.08-14.25,2.83-28.41,9.51-40.9,17.23-27.1,16.75-39.94,42.84-42.72,74.11-2.3,25.73,2.86,50.38,11.46,74.47.69,1.95,1.11,4,2.11,7.68-19.3-12.14-31.35-28.41-39-47.27-12.89-31.72-12.08-63.58,5.09-93.83,4-7.06,9.77-14,16.41-18.57,49.47-34,102.74-38.29,158.6-18.44C346.59,291.26,348.23,293.59,350.13,295.19Z"/><path class="cls-1" d="M290.53,494c-15.53-3.43-26.4-14.38-35.52-25.47-27.29-33.15-39.26-71-21.07-112.19,13.23-29.92,44.07-50.67,85-43.23-36.72,16.4-56.88,43.48-60.71,81.68C254.45,432.29,267.59,464.57,290.53,494Z"/><path class="cls-1" d="M332.37,319.89c-11.77,29.35-12.58,57.5,4,85.44,17.64,29.8,44.94,36.14,77,33.58-13.29,13.51-45.3,15.38-70,4.67-29.34-12.72-43.7-33.86-42.72-62.78C301.45,355.6,311.12,335,332.37,319.89Z"/><path class="cls-1" d="M400.42,240.91c7.15-4.16,11.75-7.25,16.71-9.59,5.82-2.75,19.75,3.37,22.42,9.41s-.29,9.81-7.17,8.41C422.38,247.09,412.57,244.09,400.42,240.91Z"/></svg>