<svg id="Layer_1" data-name="Layer 1" xmlns="http://www.w3.org/2000/svg" viewBox="0 0 500 500"><defs><style>.cls-1{fill:#fff;}</style></defs><path class="cls-1" d="M249.26,458.41c-2.88,4.73-4.86,8-6.86,11.26-9.89,16.08-24.5,24.74-43.12,25.74-16.74.89-29.5-9.68-33.1-27.24-2.36-11.55-5.62-20.51-18.91-24.43-12.39-3.65-17.34-15.31-21.91-27.07a58.79,58.79,0,0,0-15.06-22.12c-16.17-14.26-28-31.73-29.56-52.45-1.63-22.36-10-40.55-23-57.25-22.27-28.63-22.44-58.36-9.29-91,6.19-15.35,8.72-32.67,10.2-49.33,3.05-34.35,12.89-62.9,49.19-75.7,6.15-2.17,11.33-9.61,15-15.78,8.88-14.93,21.25-21.53,38.54-22.6C169.24,30,179,26.12,184.1,20.39,198.69,4,219.89-1.44,237.92,10.85c8.12,5.53,13.67,6,22.44,1.26,22.06-12,40.32-7.39,56.83,11,3.7,4.14,10.73,7.74,16.07,7.51,21.46-.89,35.86,8,45.4,27,2.34,4.65,7.28,9.58,12.08,11.16,31.6,10.36,46.16,34.65,47.93,64.89,1.54,26.43,7.54,50.7,16.39,75.31,9.14,25.42,4.6,50.16-11.66,72.57-12.79,17.62-23.6,35.43-25.31,59-1.67,23.08-14.22,42.69-33.87,57-4.87,3.55-8.78,10.22-10.32,16.18-4.11,15.95-12.09,27-28.26,32.93-4.9,1.79-9.43,9.39-10.82,15.14-4.23,17.53-11.88,31-31.32,33.88-15.83,2.36-38-10.12-46.89-25.95C254.73,466.41,252.43,463.28,249.26,458.41ZM416.9,286.3c24.69-24.86,33-51,18.11-83.79-6.84-15-7.78-32.74-11.42-49.23-3.24-14.71-5.08-29.93-10.14-44-6.45-18-22.58-24.8-40.26-26.52-12.43-1.2-18.12,6.11-22.89,23-1,3.49-5.94,5.87-9.06,8.76-2.15-3.32-5.89-6.52-6.15-10-1.06-14.08,5-25,16.81-32.89,10.89-7.24,10.51-15.66-1.4-21.16a32.13,32.13,0,0,0-15.69-2.79c-12.89,1.2-22.59-3.59-30.59-13.17-9.6-11.5-21.38-11.29-34.19-6.43-12.22,4.64-12.93,15-12.93,25.5q-.11,179.67,0,359.35c0,19.74,4.77,37.63,19.39,52.74,8.13,8.4,15.87,14.53,27.59,12.14s11.93-13.63,13.94-22.29c2.92-12.55,9.55-20.71,21.59-25.19A24.81,24.81,0,0,0,350.16,423c16.77-21.35,2.32-55.18-25.39-61.35-4.93-1.1-12.91-6.26-12.76-9.19.52-9.91,9.41-7.38,15.66-6.54,22.57,3.07,36.46,17,44.42,38.27,21.55-16.64,31.71-37.93,32.53-63.83.86-27.3-9.41-46.18-30-53.5-7.88-2.8-16.57-3.7-25-4.51-33.85-3.29-54.18-36.57-53.76-65.11.05-3.37,4.18-6.67,6.41-10,3.12,2.94,6.7,5.54,9.17,9,1.39,1.92,1,5.17,1.35,7.83,2.92,20.69,22.09,41,42.77,42C384,247.39,404,260.16,416.9,286.3Zm-175.74-161c-25.47,5.62-36.4,20.58-38,49.63-1.92,35.4-23.07,58.33-57.23,61-4.07.32-8.48-3.62-12.73-5.59,3.25-3.39,6.32-9.51,9.79-9.75,28-1.92,42.87-24,43.6-47.93,1.06-34.32,19.21-53.84,48.08-67.22,3-1.39,6-6.34,6.18-9.76a467.49,467.49,0,0,0-.08-48.38c-.36-5.53-3.74-12.08-7.83-15.93-11.39-10.71-23.35-10.23-35.48,2-10.19,10.23-21,15.82-35.77,14.44-4.94-.46-10.75,1.47-15.2,4-10.5,6-10.32,12.37.12,18.2,14.24,8,23.69,19.54,24.94,35.88.41,5.33-2.92,15-6.23,15.8-9.54,2.36-9.15-6.63-10.14-13.21C152.28,89,134.14,78.08,115.34,84.29,91.56,92.15,78.41,112.85,76,139.67c-1.88,21.11-4.13,43.3-12.19,62.5-12.56,29.94-7.6,53.67,11.67,78.38,9.43,12.09,17.52,28.1,18.84,43,2.28,25.63,13.15,44.29,32,60.74,9.32-22.85,24.26-37.55,49.12-38.43,3.9-.14,8,4.44,11.95,6.84-3.18,3-5.92,6.86-9.66,8.76-4.66,2.38-10.4,2.58-15.25,4.69-15.79,6.88-20.64,21.66-20.39,36.34.16,8.79,5.9,22,12.86,25.24,16.07,7.51,23.88,17.87,27.49,34.77,3.7,17.34,22.75,21.84,35,9.13,15.36-15.93,24.13-34.31,24-57.53-.63-91-.26-182-.26-273Z"/><path class="cls-1" d="M293.93,103.88c18,.35,47,18.93,51.93,47.63,3.6,20.9,15.12,30,35.79,31.05,6.43.33,16-1.08,14.55,8.6-1.19,8-8.69,12.76-18.16,11.54-21.38-2.75-43.32-22.25-48.18-43.06-6.4-27.47-14.68-34.27-42.84-36.66-3.4-.29-6.48-4.34-9.7-6.65,2.76-3.86,5-8.34,8.49-11.33C287.77,103.32,291.83,104.1,293.93,103.88Z"/><path class="cls-1" d="M267.1,369.09c6.52-14.39,10.83-28.59,18.75-40.36,13.11-19.48,15-31.68,2.89-51.69-3.32-5.47-8.5-11.79-.3-15.47,3.35-1.5,11.55,2.86,14.77,6.81,15.36,18.83,13.49,48.45-3.51,72.15-15.72,21.91-16,32.37-2.86,54.9,1.93,3.3.4,8.61.47,13-4.62-1.12-11.75-.78-13.41-3.63C277.57,394,273,382.09,267.1,369.09Z"/><path class="cls-1" d="M191.66,348.34c15.9-23.5,5.07-47.29,4-71.32-.59-13.15,7.18-27,12.65-39.87,1.21-2.86,8.59-3.11,13.13-4.56.48,4.84,3.23,11.35,1.09,14.24-15.23,20.51-14.66,40.19-.16,60.68,1.89,2.67,1.47,9.13-.52,12-13.17,19.09-14.68,37.53-.83,57.2,2.67,3.79.48,11,.54,16.63-5.2-2.19-13.12-3-15.1-6.82C200.46,374.89,196.76,362.07,191.66,348.34Z"/><path class="cls-1" d="M110.15,173.05c11.58,4.41,23.2,2.69,32.18-9.87,1.17-1.64,8-1.88,8.9-.53,1.91,2.81,2.93,7.48,2,10.74-3.54,12.58-20.19,21.78-34.89,18.09C106,188.39,97.62,189.6,92.63,202.6c-.85,2.21-7.37,4.46-9.61,3.35-2.64-1.32-4.85-6.28-4.83-9.65C78.25,184.23,93.16,173,110.15,173.05Z"/><path class="cls-1" d="M141.84,288.48C139,299.92,137,312.69,152,320.68c1.48.79,2.19,7,1.12,7.8-2.92,2.12-7.3,4.24-10.52,3.57-12.13-2.54-17.18-12.12-19.32-23.17a34.14,34.14,0,0,1,.55-14.64c2.67-10.23,1.38-18.17-8.23-24.46-2.62-1.71-2.77-7.2-4.06-11,4.24-.92,9.32-3.79,12.58-2.41C137.13,261.94,141.83,273.19,141.84,288.48Z"/></svg>