<svg id="Layer_1" data-name="Layer 1" xmlns="http://www.w3.org/2000/svg" viewBox="0 0 500 500"><defs><style>.cls-1{fill:#fff;}</style></defs><path class="cls-1" d="M252.1,498c-14.43-18.64-28.14-35.58-40.79-53.28-2.92-4.08-3.46-10.83-3-16.2,5.08-64,10.83-127.87,15.8-191.85,2.47-31.72,3.7-63.53,5.57-96.58h44.82c1.46,17.91,3,36.22,4.43,54.54,5.93,74.87,11.69,149.76,17.87,224.61,1.2,14.51-1.55,26.62-11.86,37.76C273.41,469.41,263.64,483.41,252.1,498Z"/><path class="cls-1" d="M186.14,127.9c-41.86-41-51.59-94.44-22.81-128,2.13,4.83,3.23,9.45,5.86,12.91,10.53,13.82,20.67,28.12,32.69,40.56,6.84,7.07,10.24,12.32,6,21.92C200.19,92.38,193.48,109.93,186.14,127.9Z"/><path class="cls-1" d="M339.89.52c29.45,31.92,17.82,96.22-22.22,126.69-7.46-20.23-15-40.13-22-60.22-.81-2.32.24-6.94,2.05-8.27C317.83,44,332.47,25.21,339.89.52Z"/><path class="cls-1" d="M251.21,128.87c-8.09-2.86-21.16-3.7-23.29-9-5.15-12.73-5.74-27.48-6.74-41.52-.16-2.34,6.75-7.18,10.64-7.45A335.43,335.43,0,0,1,273,70.68c8.19.44,12.92,5.69,11.82,14.58-.59,4.72-1.47,9.41-2.1,14.13C279.15,126.51,279.16,126.51,251.21,128.87Z"/></svg>