<svg id="Layer_1" data-name="Layer 1" xmlns="http://www.w3.org/2000/svg" viewBox="0 0 500 500"><defs><style>.cls-1{fill:#fff;}</style></defs><path class="cls-1" d="M350.91,66.41c12.25,0,23.76.28,35.27-.09,9.5-.29,17.22,5.59,23.94,17.32,23.2,40.49,46.08,81.63,70.09,120.59,12.11,19.63,15.9,41.33,12.71,69.46h-412v-65.4L5.1,182.47c0-1.57,0-3.13,0-4.7l121-18.82.33-3.87L6,123.76c0-1.47-.07-2.93-.1-4.4L124.66,98.17c0-1.4,0-2.81.07-4.21L10.18,65.17c0-1.53,0-3.06,0-4.59L79.28,46c5-34.27,9.32-40,29.2-40H320.82c23.77,0,28.64,8.41,29.44,50.74C350.3,59,350.56,61.28,350.91,66.41Zm22.8,151.82h81c-1.53-4.15-2-6.31-2.92-7.81-18.47-31.29-36.68-63.08-55.72-93.28-3.84-6.1-10.73-7.2-16.37-8.37-1.72-.35-5.62,6.69-5.67,10.47C373.52,152,373.71,184.86,373.71,218.23Z"/><path class="cls-1" d="M80.76,296.55H493.34c0,28.87.54,57.06-.24,85.14-.39,14-6.35,23.16-14.27,25-7.15,1.69-14.63,2.39-21.69.45-2.79-.77-5.77-9.19-7.1-15.19-11.48-51.94-39.1-77.33-68.35-61.55-17.21,9.28-27.13,32.45-33.26,60.13-3.14,14.19-7.61,16.94-15.4,16.74-28.74-.72-57.5-.76-86.25,0-7.59.21-11.25-3.19-14.38-16.24-12.84-53.54-38.11-76.06-66.49-60.72C148,340,137.78,363.76,131.15,392.62c-2.55,11.08-5.52,17.54-12.76,15.82-2.22-.53-4.59,1.23-6.87,1-24.85-2.17-31-7.69-30.77-50.55C80.84,338.73,80.76,318.55,80.76,296.55Z"/><path class="cls-1" d="M398.81,348c23.31.1,41.4,31.7,41.43,72.35,0,42.73-17.46,73.82-41.43,73.66s-42.32-31.79-42.25-72.89S375.17,347.89,398.81,348Zm-.2,108.12c11.16,0,19.93-15.72,19.78-35.48-.15-18.74-8.9-34.24-19.52-34.55S378.29,402.7,378.2,421C378.11,439.58,387.71,456.09,398.61,456.11Z"/><path class="cls-1" d="M182.1,494c-24,.07-42-31.3-41.87-73.1.09-40.73,18.12-72.69,41.15-72.91,23.69-.23,42.25,31.44,42.52,72.55C224.17,462,206,493.92,182.1,494Zm0-37.89c11.38-.09,19.85-15.41,19.66-35.51-.19-19-8.74-34.11-19.47-34.46s-20.38,16-20.44,34.93S171.12,456.19,182.09,456.11Z"/></svg>