<svg id="Layer_1" data-name="Layer 1" xmlns="http://www.w3.org/2000/svg" viewBox="0 0 500 500"><defs><style>.cls-1{fill:#fff;}</style></defs><path class="cls-1" d="M78.9,77.54c0-10.65-.17-20,0-29.38C79.47,23.79,96,7,120.2,7q157.86-.23,315.7,0c24.7,0,43.27,20.56,43.27,47.38,0,62.46-.15,124.91-.15,187.37q0,94.32.16,188.65c0,33.76-24.24,63-61.27,62.65q-171.3-1.86-342.61-.66c-28.09.2-55-33.3-55-55.69.33-102.23-.15-204.47-.24-306.7,0-27.22,19-47.62,47.13-51C70.55,78.53,73.89,78.14,78.9,77.54ZM446.61,244.73q0-89.79,0-179.59c0-22.52-2.78-25.16-24.91-25.16q-137.91,0-275.81,0c-7.27,0-14.54-.09-21.8.14-9.11.29-14.25,5-14.67,14.28-.24,5.12-.45,10.25-.45,15.38q0,155.85-.1,311.72c0,12.36-.76,24.75-1.74,37.08-.78,9.77-7.24,14.06-16.51,14.22-9.77.16-12-6-11.8-14.44.16-6-.59-11.94-.59-17.91q-.08-136,0-272c0-6.36,1.3-13.33-8.5-14-8.43-.57-14.4,2.22-15.9,11-1.21,7.12-2.35,14.36-2.36,21.56q-.24,135.33-.1,270.67c0,31.09,5.81,37.69,37.06,41.95a88,88,0,0,0,11.47.77q152,.06,304,0c33.59,0,42.72-9.25,42.74-42.52Q446.67,331.33,446.61,244.73Z"/><path class="cls-1" d="M135.26,134.91c0-18.36.2-36.72-.08-55.08-.15-9.46,5.07-13.46,13.35-13.52q51.94-.39,103.9,0c8.52.06,13.56,5,13.6,13.77.18,35.05.55,70.09.05,105.13-.22,15.18-5.41,19.73-20.58,19.88q-46.18.44-92.36,0c-14.24-.12-17.66-4.06-17.75-18.83-.11-17.11,0-34.21,0-51.32Zm31.21,35.31h65.58V102.13H166.47Z"/><path class="cls-1" d="M275.52,232.76q60.24,0,120.48,0c4.68,0,9.88-.73,13.9,1,4.45,1.94,7.81,6.35,11.64,9.69-4.57,3.16-9,6.49-13.78,9.37-1.25.75-3.34.12-5.05.12Q277.1,253,151.49,253c-3.72,0-9.07.51-10.81-1.59-2.89-3.47-5-9.09-4.38-13.37.32-2.22,7.14-5,11-5C190.07,232.63,232.79,232.76,275.52,232.76Z"/><path class="cls-1" d="M276.51,296.83c-40.18,0-80.36.25-120.54-.21-7.64-.09-20.16,5.5-20.28-9.45-.12-14.35,12-10.4,20.07-10.43,80.78-.24,161.57-.15,242.36-.15,3,0,6.63-1.06,8.84.27,5,3,9.31,7.19,13.9,10.9-4.94,3-9.85,8.59-14.84,8.67C362.86,297.13,319.68,296.83,276.51,296.83Z"/><path class="cls-1" d="M357,368.87c16.63,0,33.29-.61,49.85.4,4.63.28,9,5.35,13.44,8.22-4.32,3.82-8.56,10.82-13,10.95-33.65.92-67.35,1-101-.05-4.67-.14-9.11-7.75-13.66-11.9,4.83-2.56,9.54-7.05,14.49-7.33,16.58-.93,33.23-.35,49.85-.35Z"/><path class="cls-1" d="M198.77,368.81c16.2,0,32.39-.15,48.58.06,7.24.1,16.52.37,15.48,10-.41,3.86-9.53,9.52-14.81,9.67-31.94.91-63.91.47-95.87.42-2.11,0-5.13.38-6.16-.8-3.62-4.11-6.54-8.83-9.73-13.31,3.79-2,7.53-5.65,11.39-5.8C164.67,368.44,181.73,368.8,198.77,368.81Z"/><path class="cls-1" d="M199.28,433.56c-15.8,0-31.59.17-47.39-.07-6.89-.11-15.81-.75-14.4-9.82.65-4.16,9.28-9.93,14.44-10.08q48-1.38,96,0c5.46.15,14.85,5.45,15.32,9.24,1.14,9.32-7.86,10.58-15.33,10.69C231.72,433.72,215.5,433.56,199.28,433.56Z"/><path class="cls-1" d="M356,433.56c-16.22,0-32.48.72-48.62-.42-5.1-.36-9.85-5.66-14.76-8.7,4.9-3.76,9.72-10.63,14.74-10.78q49.25-1.46,98.56,0c4.92.15,9.65,7.12,14.46,10.94-4.81,3-9.48,8.21-14.47,8.54C389.36,434.24,372.67,433.56,356,433.56Z"/><path class="cls-1" d="M198,342.35q-25,0-50,0c-6,0-12.23.95-12.52-8.32-.3-9.46,6.21-10.51,12.67-10.56,24.77-.2,49.54.13,74.3.19,8.5,0,17.25-1.46,25.41.13,5.67,1.11,14.3,5.65,15,9.77,1.39,8.21-7,8.78-13.61,8.78Q223.64,342.33,198,342.35Z"/><path class="cls-1" d="M358.41,187.26c17.5,0,35-.35,52.49.27,3.81.13,7.48,3.73,11.22,5.74-2.85,3.49-5.18,7.7-8.71,10.22-2.46,1.75-6.57,1.57-9.94,1.58-32.87.11-65.75.24-98.61-.14-4.15-.05-9.73-1.87-12.1-4.87-4.71-6,.12-12.56,9.3-12.71C320.84,187.05,339.62,187.26,358.41,187.26Z"/><path class="cls-1" d="M291.27,104c5.16-2.61,10.27-7.36,15.48-7.47,33.21-.7,66.45-.42,99.67-.29,2.85,0,6.25.62,8.4,2.25,2.44,1.87,5.34,5.35,5.12,7.86s-3.83,5.31-6.59,6.5c-3,1.27-6.66,1-10,1-31.1.06-62.21.27-93.3-.17-6.07-.08-12.11-2.75-18.16-4.23Q291.58,106.72,291.27,104Z"/><path class="cls-1" d="M292,329.19c5.32-1.58,10.61-4.46,16-4.53,32.81-.43,65.63-.51,98.43.12,4.62.09,9.15,4.73,13.73,7.26-4.69,3.42-9.31,9.69-14.09,9.82-32.79.88-65.62.85-98.42.11-5.49-.13-10.88-5.16-16.31-7.93C291.48,332.43,291.72,330.81,292,329.19Z"/><path class="cls-1" d="M292.09,148.29c4.76-1.72,9.5-4.86,14.28-4.93q50.61-.65,101.22,0c4.42,0,8.81,3.09,13.22,4.75.05,1.57.1,3.14.16,4.72-5,1.79-10,5.08-15,5.15-32.88.47-65.77.41-98.65.06-5,0-10-2.54-15-3.91Z"/></svg>