<svg id="Layer_1" data-name="Layer 1" xmlns="http://www.w3.org/2000/svg" viewBox="0 0 328.9 477.97"><defs><style>.cls-1{fill:#fff;}</style></defs><path class="cls-1" d="M286.92,369.2c-8.94,3-17.86,8.33-26.88,8.51-8.69.17-17.48-4.94-27.68-8.2-1.72,11.68-3.07,23.23-5.26,34.61-.91,4.72-3.67,9.06-5.43,13.64a12.57,12.57,0,0,0-.9,4.79c.54,15.44,1.3,30.87,1.67,46.3,0,1.78-1.69,4.91-3.06,5.2-25.64,5.42-51.26,12.37-77.29,1.31-5.41-2.3-7.92-5-6.78-11,2.37-12.46,3.06-25.44,7.06-37.32a557.11,557.11,0,0,1,24-60c10-21.09,13.11-43.4,16-66,2.58-20.3,5.74-40.54,7.95-60.89.67-6.12-1-12.49-1.58-18.63-9.45.35-12.14,3.76-12.3,11-.53,25.33-19.8,44.35-44.55,44.68s-44.54-18.88-46-44.58c-1.42-24,17.42-45.33,42.16-47.48,6.89-.61,13.85-.65,20.77-.6,7.67.07,15.54.1,14.64,11.52-.13,1.61,2.27,5,2.75,4.86,7.8-2.18,15.8-4.12,23-7.62,3.12-1.51,4.59-6.44,7.48-10.83-1.36-1.28-4.28-3.91-7.08-6.65C140.14,127.53,154.84,39.9,217,12.62c52.1-22.87,112.14,7.74,126.14,65.08,9.42,38.63-.4,72.45-28.79,100.61-1.78,1.77-3.43,3.68-5.54,5.95,6.12,2.08,14.27.36,14.07,10,0,.86,2.54,2.18,4.09,2.6,18.44,5,28.84,18.25,35.82,34.87,2,4.69,3.61,7.56,9.88,6.79,3-.37,8.18,3,9.7,6,9.7,19.25,18.65,38.88,29,60.75l-57.75,23.81c-4.18-18-7.92-33.91-11.5-49.8a102.48,102.48,0,0,1-1.84-12c-1.33-13-1.23-13.16,8.77-22.54-5.47-11-9.8-22.94-25.35-28-.39,7.11-2,13.62-.86,19.58,6.22,31.95,11.87,64.1,20.25,95.51,6.58,24.66,17.8,48.06,25.18,72.56,6.32,21,10.16,42.72,15,64.15,1.15,5.1-1.15,7.7-6.35,9.25-25.11,7.48-50.13,5.85-75.3.49-4.76-1-6.25-3.33-6-7.7q1.29-23.13,2.52-46.26c0-.56.39-1.3.15-1.65C287,406.55,292.77,387,286.92,369.2Zm-107.67-244c21.4,1,42.16,2.93,62.88,2.68,25.64-.32,51.26-2.42,76.88-3.81,5.74-.32,9.84-2.59,10.24-9.15.63-10.31,2.44-20.66,1.93-30.9-.61-12.58-3.53-14.51-16.05-15.37-3.16-.22-6.31-.64-9.47-.92-40.1-3.57-80.14-2-120.16,1.43-4.94.42-7.66,2.59-8.74,7.75C173.4,92.79,174.88,108.33,179.25,125.17ZM255.2,298.29l2.18-2c-3.17-3.56-5.95-7.61-9.61-10.56-5.63-4.55-8.21-10.31-5.81-16.7,1.21-3.23,5.63-6.14,9.2-7.24,2-.61,5.15,2.86,6.8,3.88l-11.19,2.86c1.43,3.95,1.72,9.37,4.52,11.55,5.78,4.49,12.23,2.48,16.87-2.94,5.95-6.94,5.57-14.85,2-22.74-3.77-8.42-11.84-13.72-22.32-13.27,4.32,4.75,7.78,8.18,10.79,12,2.6,3.28,6.14,6.81,6.58,10.54a17,17,0,0,1-4,12.08c-1.71,1.88-6.84.64-10.44.8-.18-.85-.35-1.69-.53-2.54,6,.86,10.89,0,10.58-7.07-.31-6.89-5.38-10.4-11.09-9.07-4.94,1.14-10.9,4.65-13.26,8.87C229.22,279.77,238.47,294.57,255.2,298.29Zm-13-122.63c18.25,6,45-8.44,46.74-23.75Zm-29,244.42.19-2.72c-18.94-4-37.92-5.17-57-.19Zm91-.06c.11,1.32.23,2.65.34,4l58.26-3.2-.07-.78Z" transform="translate(-85.75 -5)"/><path class="cls-1" d="M61.35,499.92" transform="translate(-85.75 -5)"/><path class="cls-1" d="M-50.73,112.32" transform="translate(-85.75 -5)"/><path class="cls-1" d="M524-120.38" transform="translate(-85.75 -5)"/><path class="cls-1" d="M115.45-144.72" transform="translate(-85.75 -5)"/><path class="cls-1" d="M414.34,335.77c1.54,14.07-2.55,20.36-15.12,22.3-1.92.3-6.65-3.95-6.35-5.2,2.36-9.73-4.82-16.14-7.22-24.13-1-3.41-.79-9.79,1.23-11.05,5.69-3.57,12.81-7.5,19-7,7.3.64,7.92,20.1.3,25.88Z" transform="translate(-85.75 -5)"/><path class="cls-1" d="M150.47,185.11c-15,0-15.26,0-14.22-15.51.38-5.71.93-12,3.69-16.76,1.94-3.31,7.88-6.16,11.79-5.88,3.33.25,7.77,4.7,9.13,8.28,2.45,6.42,3.26,13.55,4.21,20.46s-1.89,10.74-9.54,9.45A30.49,30.49,0,0,0,150.47,185.11Z" transform="translate(-85.75 -5)"/><path class="cls-1" d="M378.33,337.53c2.13,4.81,4.85,9.46,6.15,14.48.74,2.85-.87,6.3-1.43,9.48-3.64-1.15-8.92-1.19-10.61-3.67-4.91-7.23-8.16-15.56-12.49-23.21-3-5.32-1.14-8.16,3.72-10.46,5-2.38,9.91-3.4,13.18,2.24,1.77,3.05,2.36,6.79,3.48,10.23Z" transform="translate(-85.75 -5)"/><path class="cls-1" d="M212.66,83.37c17.09.35,18.35,1.67,18.08,19-.23,14.93-3.61,17.86-20.06,17.35-14.52-.45-16.86-3.43-16.42-20.87C194.64,83.5,195.23,83,212.66,83.37Z" transform="translate(-85.75 -5)"/><path class="cls-1" d="M261.87,104.54c8-2,16-4.18,24.08-5.66,1.83-.34,4.13,1.91,6.21,3-1.53,1.6-2.8,4.13-4.63,4.64a129.93,129.93,0,0,1-18.82,3.81c-2.31.28-4.85-1.36-7.29-2.12Z" transform="translate(-85.75 -5)"/></svg>