<svg id="Layer_1" data-name="Layer 1" xmlns="http://www.w3.org/2000/svg" viewBox="0 0 165.14 178.72"><defs><style>.cls-1{fill:#fff;}</style></defs><path class="cls-1" d="M168.54,217.5c0-9.88.08-19.76,0-29.65,0-3.24,1.23-4.95,4.3-6,19.75-6.91,39.43-14.06,59.23-20.86a13.21,13.21,0,0,1,7.94.16c19.53,6.71,39,13.74,58.47,20.53,3.4,1.18,4.65,3.08,4.61,6.66-.22,18.52-.2,37.05-.32,55.58,0,5.59-1.4,6.78-7,6.1-3.56-.43-7.32.1-10.23-3.2-1-1.1-3.6-1-5.47-1-11.25-.09-22.51,0-33.76,0-6.54,0-6.9-.39-6.91-7.09q0-28,0-56c0-6.27-1.61-7.45-7.43-5.41-14.32,5-28.6,10.21-43,15.13-3.64,1.24-5.2,3.06-5.12,7.1.28,15.78.22,31.56.31,47.35,0,5.26,1,6.18,6.3,6.18,12.07,0,24.15,0,36.23,0,4.27,0,5.75,1.57,5.76,5.66q0,26.13.08,52.25c0,2.46-.11,4.93.05,7.37.2,3.18,2.13,3.86,4.89,3a7.18,7.18,0,0,0,1.48-.71c8.34-5.16,8.8-3.21,13.4,5.63.62,1.17-.31,4.27-1.48,5A85.36,85.36,0,0,1,238.24,338a6.73,6.73,0,0,1-5.12-.06c-16.61-8.29-32.82-17.28-45.36-31.41-10.76-12.13-16.11-26.72-17.42-42.64-1.28-15.42-1.69-30.92-2.48-46.38Z" transform="translate(-167.86 -160.42)"/><path class="cls-1" d="M291.88,256.8a41.19,41.19,0,0,1,41.12,41c.06,22.47-19,41.45-41.5,41.3-23-.15-41-18.73-40.84-42.1C250.81,274.54,269.08,256.71,291.88,256.8Zm-7.6,52.12c-3.35-3.73-5.62-6.7-8.38-9.1-1.07-.94-3.69-1.35-4.84-.69-2.2,1.28-1.67,3.5,0,5.23,3.13,3.26,6.34,6.46,9.46,9.73,2.66,2.78,4.89,2.5,7.56-.27,6.74-7,13.73-13.82,20.61-20.71,1.26-1.26,3-2.34,3.63-3.87s.16-3.34.17-5c-1.59.08-3.35-.22-4.73.36s-2.21,2-3.25,3.08C298,294.48,291.5,301.32,284.28,308.92Z" transform="translate(-167.86 -160.42)"/></svg>