<svg id="Layer_1" data-name="Layer 1" xmlns="http://www.w3.org/2000/svg" viewBox="0 0 500 500"><defs><style>.cls-1{fill:#fff;}</style></defs><path class="cls-1" d="M85.51,191c6.24-23,12-44.58,17.93-66.11,8.59-31.4,17.48-62.72,25.83-94.18,7.78-29.32,13-22.95,29.91-14.45C195.7,34.58,233.89,33.61,272.63,25q34.81-7.71,69.74-14.89C356.94,7.13,361.11,9,364.75,22c15.49,55.19,30.6,110.49,46.59,168.41C302.78,191.73,195.23,191.85,85.51,191Z"/><path class="cls-1" d="M432.06,414.54c-1.34,23.09-13.57,47.07-40.86,63.86-22.3,13.72-45.16,15.94-67.57,5.24-21-10-37.47-26.3-44.78-50.08-4.92-16-7.58-17.25-24.12-17.52-3.06-.05-6.13-.06-9.19-.09-18.44-.16-22.55,2-28.29,19.77-13.8,42.88-56.15,62.54-92.89,52.85s-64.9-50.39-59.53-93c4.6-36.52,29.07-65.63,59.72-71.86,45.44-9.24,80.24,13,94.29,55.4,2.75,8.31,6,11.57,14.69,10.93a210,210,0,0,1,30.62,0c8,.58,10.8-2.8,13.25-10,8.73-25.71,23-46.67,50.61-55.62C382.26,306.87,433.35,347.12,432.06,414.54Zm-22-8.81c1.86-37.09-29.41-61.64-54.93-63.13s-58,24.62-58.95,59.44c-.88,31.23,24.21,62.46,54.26,63.85C384.67,467.47,411.27,435.06,410.07,405.73Zm-209,.57c-.28-38-27.52-61.5-57-61.7-30.06-.2-56.63,22.48-57.51,59.93-.74,31.17,22.13,61.69,56.77,62C177.26,466.82,201,435.89,201.05,406.3Z"/><path class="cls-1" d="M492.91,290.94H7.2l-.84,3.33C30.9,307.55,55,322.61,80.11,333.58c22.84,10,46.77,15.36,70.16,23.1,60,19.87,120.75,19.56,180.75,4.66,41.71-10.36,82.34-29.11,123.12-45.65C466.84,310.54,478.43,300.37,492.91,290.94Z"/></svg>