<svg id="Layer_1" data-name="Layer 1" xmlns="http://www.w3.org/2000/svg" viewBox="0 0 500 500"><defs><style>.cls-1{fill:#fff;}</style></defs><path class="cls-1" d="M351.15,5.2V206.69c-37.9,2.54-71,15-97.58,42.17-21.28,21.8-34.68,47.8-39.47,77.76-4,24.95-2.43,49.73,6.73,73.68s22.62,45.18,43.29,59.88c20,14.2,42.21,25.18,60.44,35.82H27.36L348.55,3.88Z"/><path class="cls-1" d="M455,413.8c-10.88,10.45-19.64,20.88-30.37,28.57-9,6.45-14.73-3.51-20.85-8.6-2.24-1.85-3.84-4.66-6.3-6-2.95-1.6-6.81-3.34-9.67-2.62-2,.5-2.91,5.08-4.26,7.86-.16.34.05.84,0,1.23-2.1,9.33-1.65,24.46-6.86,26.75-10.54,4.65-24.19,3.06-36.46,2.38-3.17-.18-7.06-6.14-8.68-10.21s-.14-9.15-1.09-13.56c-1.14-5.24-3.41-10.23-5.19-15.33-4.46,2.43-9.79,4-13.22,7.44-16.53,16.61-19.12,16.8-36-.05-2.06-2.06-4.16-4.09-6.18-6.19-10.41-10.79-10.44-14.9-.14-26.24,2-2.16,4.43-3.93,6-6.3,2.39-3.53,4.23-7.44,6.3-11.18-4.65-2.23-9.17-6-14-6.44-26.69-2.37-26.72-2.09-26.63-29,.07-20.23,2.75-22.89,23.1-23,3.33,0,6.71.22,10-.3,8.35-1.31,10.4-6.46,5.15-13.11-2.56-3.24-5.84-5.92-8.74-8.91-11.9-12.25-11.86-16.45.22-29,1.73-1.8,3.51-3.55,5.29-5.31,15.51-15.35,19-15.35,34.52,0,2.08,2,4,4.33,6.33,6,7.26,5.25,11.45,2.54,13.16-5.56.25-1.2-.11-2.54.15-3.74,2-9,1.89-24.1,6.44-25.66,11.53-3.94,25.35-3.14,37.79-1.23,3.67.56,6.53,10.9,8.48,17.15,2.11,6.76,2.71,14,4,21,6.41-4,13.45-7.31,19.08-12.22,10.46-9.12,15.48-9.61,25.59-.31,1.53,1.4,3.09,2.78,4.59,4.22,19.35,18.45,19.22,19.63,1,39.57-3,3.3-4,8.44-6,12.73,4.4,1.58,8.71,3.63,13.24,4.59,3.59.75,7.47.09,11.21.19,9.77.26,15.87,4.23,15.45,15.08-.15,3.72.46,7.47.45,11.21-.11,24.45-1.61,26.73-24.74,25.77-5.1-.21-10.38,3.75-15.58,5.78,2.42,4.44,4.42,9.18,7.36,13.23C443.2,400.24,448.13,405.59,455,413.8Zm-98.42-35.58c15.56.09,29-12.7,29.49-28.06s-13.84-29.55-29.62-29.36a28.71,28.71,0,0,0,.13,57.42Z"/></svg>