<svg id="Layer_1" data-name="Layer 1" xmlns="http://www.w3.org/2000/svg" viewBox="0 0 500 500"><defs><style>.cls-1{fill:#fff;}</style></defs><path class="cls-1" d="M403.81,159.61c.41,40.83-14.12,77.93-29,114.86C344.54,349.56,301.54,417.82,260,486.84c-5.08,8.43-10.69,12.33-18.06,1.77-57.26-82.08-109.45-166.87-136.61-264.37C90.14,169.72,90.64,116.62,125.82,68.36c38.4-52.7,108.52-75.63,170.94-55.77C361.11,33.07,402.91,90.47,403.81,159.61ZM250.52,92.45c-37-.62-70.3,32.49-70.73,70.24-.43,37.44,32.15,70.58,69.87,71.06,37.31.48,70.42-32.37,70.73-70.17C320.7,126,288.33,93.08,250.52,92.45Z"/></svg>